{"title":"Sparrows Dance 2012 WEBRip 480p x264 AAC - VYTO [P2PDL]","uid":8924843,"size":308686035,"categoryP":"video","categoryS":"movies","magnet":"?xt=urn:btih:64179d7f0ef29f7954b7a02f6b5b9aaaa8547143&amp;dn=Sparrows+Dance+2012+WEBRip+480p+x264+AAC+-+VYTO+%5BP2PDL%5D&amp;tr=udp%3A%2F%2Ftracker.openbittorrent.com%3A80&amp;tr=udp%3A%2F%2Fopen.demonii.com%3A1337&amp;tr=udp%3A%2F%2Ftracker.coppersurfer.tk%3A6969&amp;tr=udp%3A%2F%2Fexodus.desync.com%3A6969","seeders":1,"leechers":0,"uploader":"ValidusVyto","files":-1,"time":1379339958,"description":"_______ Visit us at our Semi Public Bittorrent Community ________\n  &lt;a href=&quot;\nhttp://p2pdl.com&quot; rel=&quot;nofollow&quot; target=&quot;_NEW&quot;&gt;\nhttp://p2pdl.com&lt;/a&gt;  _____________________________ &lt;a href=&quot; http://p2pdl.com&quot; rel=&quot;nofollow&quot; target=&quot;_NEW&quot;&gt; http://p2pdl.com&lt;/a&gt;\n\n\nSparrows Dance 2012 WEBRip 480p x264 AAC - VYTO\n\n\nGenre: Comedy | Drama | Romance\nPlot: A story centered on an actress who has become \nagoraphobic who reluctantly allows a plumber \ninto her apartment after her toilet overflows.\nDirector: Noah Buschel\nStars: Marin Ireland, Paul Sparks, Niesha Butler \n\nInfo: &lt;a href=&quot;\nhttp://www.imdb.com/title/tt2284790/&quot; rel=&quot;nofollow&quot; target=&quot;_NEW&quot;&gt;\nhttp://www.imdb.com/title/tt2284790/&lt;/a&gt;\n\nGeneral\nFormat                         : MPEG-4\nFile size                      : 291 MiB\nDuration                       : 1h 21mn\nOverall bit rate mode          : Variable\nOverall bit rate               : 502 Kbps\n\nVideo\nFormat                         : AVC\nBit rate                       : 459 Kbps\nWidth                          : 720 pixels\nHeight                         : 400 pixels\nDisplay aspect ratio           : 16:9\nFrame rate mode                : Constant\nFrame rate                     : 23.976 fps\nBit depth                      : 10 bits\nStream size                    : 266 MiB (91%)\nWriting library                : x264 core 133 r2334 a3ac64b\n\nAudio\nFormat                         : AAC\nBit rate                       : 40.0 Kbps\nChannel(s)                     : 2 channels\nChannel positions              : Front: L R\nSampling rate                  : 48.0 KHz / 24.0 KHz\nStream size                    : 23.2 MiB (8%)\nLanguage                       : English\n\n\nSubtitle                       : Yes (English)\n\nSource                         : 1080p.WEB-DL.DD5.1.h.264-fiend\n &lt;a href=&quot;\nhttp://ultraimg.com/images/ROhw.png&quot; rel=&quot;nofollow&quot; target=&quot;_NEW&quot;&gt;\nhttp://ultraimg.com/images/ROhw.png&lt;/a&gt; &lt;a href=&quot;\nhttp://ultraimg.com/images/bXmhJ.png&quot; rel=&quot;nofollow&quot; target=&quot;_NEW&quot;&gt;\nhttp://ultraimg.com/images/bXmhJ.png&lt;/a&gt; &lt;a href=&quot;\nhttp://ultraimg.com/images/M6dxC.png&quot; rel=&quot;nofollow&quot; target=&quot;_NEW&quot;&gt;\nhttp://ultraimg.com/images/M6dxC.png&lt;/a&gt; &lt;a href=&quot;\nhttp://ultraimg.com/images/GqaAH.png&quot; rel=&quot;nofollow&quot; target=&quot;_NEW&quot;&gt;\nhttp://ultraimg.com/images/GqaAH.png&lt;/a&gt; &lt;a href=&quot;\nhttp://ultraimg.com/images/sm6SU.png&quot; rel=&quot;nofollow&quot; target=&quot;_NEW&quot;&gt;\nhttp://ultraimg.com/images/sm6SU.png&lt;/a&gt;\n\n----------------------------------------------------------------------------------------------------\n\n\nEncoded using revolutionary 10bit encoding, which enables us to provide you more crispier \nand sharper images at small sizes, just make sure you follow our instructions without a fault.\nRecommend to you to use latest version of VLC player. Install K-Lite Codec Pack or shark007 codecs\nin case of any kind of problem in playback (For non-VLC Media Player users). Alternatively, install\nCore AVC codecs, the fastest decoder that there is coupled with Community Center Codec Pack and play\non Windows Media Player Classic. Check sample to be sure.\nEnjoy!\n\nEncoder Notes:Looking For Early Access To Anything You Can Provide DVDScr, R5, DVDR, BluRay, Direct\nAudio, Music Releases and Seedboxes. We require dedicated servers, so as to do more \nand fast releases of movies.\nIf You Got anything to offer please contact us at &quot;&lt;a class=&quot;__cf_email__&quot; href=&quot;/cdn-cgi/l/email-protection&quot; data-cfemail=&quot;b4c4c6d3f4dcc1c7dc9ad7dbd9&quot;&gt;[email&amp;#160;protected]&lt;/a&gt;&lt;script cf-hash='f9e31' type=&quot;text/javascript&quot;&gt;\n/* &lt;![CDATA[ */!function(){try{var t=&quot;currentScript&quot;in document?document.currentScript:function(){for(var t=document.getElementsByTagName(&quot;script&quot;),e=t.length;e--;)if(t[e].getAttribute(&quot;cf-hash&quot;))return t[e]}();if(t&amp;&amp;t.previousSibling){var e,r,n,i,c=t.previousSibling,a=c.getAttribute(&quot;data-cfemail&quot;);if(a){for(e=&quot;&quot;,r=parseInt(a.substr(0,2),16),n=2;a.length-n;n+=2)i=parseInt(a.substr(n,2),16)^r,e+=String.fromCharCode(i);e=document.createTextNode(e),c.parentNode.replaceChild(e,c)}}}catch(u){}}();/* ]]&gt; */&lt;/script&gt;&quot;.\n\nFacebook Fan Page:  \nSearch P2PDL on FB and hit like!!!\n\nFor more of our team uploads visit @                                               &lt;a href=&quot;\nhttp://thepiratebay.se/user/vitamin_x&quot; rel=&quot;nofollow&quot; target=&quot;_NEW&quot;&gt;\nhttp://thepiratebay.se/user/vitamin_x&lt;/a&gt;","torrent":{"xt":"urn:btih:64179d7f0ef29f7954b7a02f6b5b9aaaa8547143","amp;dn":"Sparrows+Dance+2012+WEBRip+480p+x264+AAC+-+VYTO+%5BP2PDL%5D","amp;tr":["udp%3A%2F%2Ftracker.openbittorrent.com%3A80","udp%3A%2F%2Fopen.demonii.com%3A1337","udp%3A%2F%2Ftracker.coppersurfer.tk%3A6969","udp%3A%2F%2Fexodus.desync.com%3A6969"],"infoHash":"64179d7f0ef29f7954b7a02f6b5b9aaaa8547143","infoHashBuffer":{"type":"Buffer","data":[100,23,157,127,14,242,159,121,84,183,160,47,107,91,154,170,168,84,113,67]},"announce":[],"urlList":[]}}